#!OML:ASF F:\VICON\USERDATA\Patient Classification 1\PLAYGROUND\JustinFriday\JustinFriday.ASF
:FULLY-SPECIFIED
:DEGREES
2189
root 12.9133 8.10657 -0.839955 124.505 -1.57396 -177.271
lowerback 34.9939 1.85355 -0.10859
upperback 5.77006 0.706081 2.5121
thorax -11.386 -0.517658 2.63666
lowerneck 8.0855 -1.2158 -5.99205
upperneck 12.7972 -3.98706 6.79161
head 3.04975 -2.7014 3.29662
rclavicle -1.26228e-014 -1.14301e-014
rhumerus 78.9703 -12.012 -54.2381
rradius 43.3145
rwrist 3.14564
rhand -0.324601 -22.8522
rfingers 7.12502
rthumb 25.2794 -51.1972
lclavicle -1.26228e-014 -1.14301e-014
lhumerus 71.9496 9.50933 49.4842
lradius 49.6572
lwrist -4.06822
lhand -7.5659 5.10697
lfingers 7.12502
lthumb 18.3265 34.2637
rfemur -43.0717 -17.2119 21.4917
rtibia 118.956
rfoot -15.9171 -5.11643
rtoes 23.1267
lfemur -44.9045 23.3746 3.48672
ltibia 125.785
lfoot -10.4887 -21.9932
ltoes -9.79506
2190
root 12.9116 8.1165 -1.0636 123.982 -2.43107 -177.52
lowerback 34.744 1.9444 -0.737903
upperback 5.88717 0.586926 2.44463
thorax -11.1658 -0.552499 2.94378
lowerneck 8.11556 -1.1651 -6.31883
upperneck 12.9314 -3.97801 6.96159
head 3.10548 -2.71698 3.42075
rclavicle -7.00716e-015 4.07509e-015
rhumerus 79.2438 -12.2689 -53.8876
rradius 43.5412
rwrist 2.92663
rhand 0.0110405 -22.994
rfingers 7.12502
rthumb 25.6009 -51.2932
lclavicle -7.00716e-015 4.07509e-015
lhumerus 71.8505 9.88353 48.8749
lradius 49.7968
lwrist -3.23579
lhand -7.24718 5.44158
lfingers 7.12502
lthumb 18.6331 34.5692
rfemur -41.8291 -17.8845 19.8283
rtibia 120.236
rfoot -16.8881 -4.81842
rtoes 21.2507
lfemur -44.0343 22.1888 2.13974
ltibia 124.372
lfoot -10.4884 -22.2191
ltoes -8.07383
2191
root 12.9118 8.11194 -1.29643 123.396 -3.6539 -177.856
lowerback 34.7533 2.05359 -1.48984
upperback 5.89731 0.438922 2.16251
thorax -11.1568 -0.587837 3.10037
lowerneck 8.53877 -1.12036 -6.52151
upperneck 12.8299 -4.00422 7.31127
head 3.01356 -2.75145 3.58967
rclavicle 1.43373e-014 6.26172e-015
rhumerus 79.1389 -12.6875 -53.6252
rradius 43.8987
rwrist 2.64459
rhand 0.166855 -23.0224
rfingers 7.12502
rthumb 25.7502 -51.3001
lclavicle 1.43373e-014 6.26172e-015
lhumerus 71.8751 9.97383 48.1054
lradius 49.8877
lwrist -2.30156
lhand -6.87379 5.78678
lfingers 7.12502
lthumb 18.9922 34.8795
rfemur -40.6072 -19.0395 17.4958
rtibia 121.736
rfoot -17.7864 -4.26915
rtoes 19.6377
lfemur -43.2446 21.2402 0.55567
ltibia 123.403
lfoot -10.6852 -22.0419
ltoes -6.04185
2192
root 12.9109 8.09916 -1.5354 122.938 -4.80159 -177.917
lowerback 34.6464 2.20979 -2.25906
upperback 5.83129 0.410987 2.17482
thorax -11.2002 -0.553872 3.5339
lowerneck 9.24583 -1.08747 -6.73435
upperneck 12.8108 -4.08527 7.76552
head 2.5788 -2.79388 3.46567
rclavicle 4.19933e-015 -1.69215e-014
rhumerus 78.8752 -13.1327 -52.8098
rradius 44.2944
rwrist 2.39116
rhand -0.0392917 -23.2285
rfingers 7.12502
rthumb 25.5527 -51.5347
lclavicle 4.19933e-015 -1.69215e-014
lhumerus 71.8423 9.99078 47.36
lradius 49.8167
lwrist -0.937818
lhand -6.83084 6.15384
lfingers 7.12502
lthumb 19.0335 35.2425
rfemur -39.4542 -20.386 15.3241
rtibia 123.255
rfoot -18.7402 -3.7372
rtoes 18.305
lfemur -42.6813 20.7608 -0.57997
ltibia 123.028
lfoot -10.1955 -21.4213
ltoes -2.5916
2193
root 12.9013 8.09438 -1.77593 122.494 -5.36564 -177.598
lowerback 34.2108 2.09477 -2.19395
upperback 5.93842 0.318633 2.20465
thorax -10.9058 -0.596418 3.56068
lowerneck 9.67211 -1.0082 -6.97685
upperneck 12.6976 -4.0614 8.07072
head 2.48327 -2.80527 3.60868
rclavicle 1.1455e-014 -1.33931e-014
rhumerus 78.9289 -13.519 -52.5642
rradius 44.6693
rwrist 2.60119
rhand -0.0565551 -23.7315
rfingers 7.12502
rthumb 25.5362 -52.04
lclavicle 1.1455e-014 -1.33931e-014
lhumerus 71.8485 10.2321 46.2931
lradius 49.7524
lwrist 0.491774
lhand -7.05804 6.58405
lfingers 7.12502
lthumb 18.815 35.6941
rfemur -37.9739 -21.5133 13.8747
rtibia 124.541
rfoot -19.8731 -3.22271
rtoes 17.6936
lfemur -41.8601 20.7704 -0.508046
ltibia 123.22
lfoot -9.99104 -20.7443
ltoes 0.983878
2194
root 12.8851 8.10417 -2.01536 122.081 -5.17765 -177.055
lowerback 33.6487 2.03976 -1.63058
upperback 6.08208 0.518106 2.65823
thorax -10.5438 -0.525985 3.6594
lowerneck 10.0407 -1.07554 -7.31841
upperneck 12.6032 -4.18877 7.94868
head 2.4133 -2.89417 3.63488
rclavicle 1.14798e-014 3.27995e-015
rhumerus 78.9146 -13.8429 -52.0063
rradius 45.4033
rwrist 2.58467
rhand -0.0354515 -24.594
rfingers 7.12502
rthumb 25.5564 -52.8996
lclavicle 1.14798e-014 3.27995e-015
lhumerus 71.776 10.5502 45.8001
lradius 49.7574
lwrist 1.60349
lhand -7.32161 7.0213
lfingers 7.12502
lthumb 18.5615 36.1557
rfemur -36.506 -22.0804 13.4265
rtibia 125.632
rfoot -20.8705 -2.93403
rtoes 17.0245
lfemur -40.6976 21.4667 1.02069
ltibia 123.873
lfoot -10.0462 -20.6751
ltoes 4.95283
2195
root 12.8672 8.12491 -2.24997 121.687 -5.11811 -176.576
lowerback 33.4164 1.81882 -0.921399
upperback 6.06016 0.52392 2.79071
thorax -10.4678 -0.53311 3.41483
lowerneck 10.3672 -1.09872 -7.3594
upperneck 12.6232 -4.25625 7.80805
head 2.37357 -2.94876 3.60418
rclavicle -4.34841e-015 1.56543e-014
rhumerus 78.8294 -14.1583 -51.665
rradius 46.1471
rwrist 2.3986
rhand -0.0074437 -25.0867
rfingers 7.12502
rthumb 25.5832 -53.3885
lclavicle -4.34841e-015 1.56543e-014
lhumerus 71.4654 10.8383 44.8458
lradius 49.9451
lwrist 2.80349
lhand -7.48547 7.3443
lfingers 7.12502
lthumb 18.4039 36.4937
rfemur -35.1257 -22.5546 12.7852
rtibia 126.678
rfoot -21.5674 -2.65759
rtoes 15.9351
lfemur -39.5195 22.2016 2.55758
ltibia 124.84
lfoot -10.2094 -20.9359
ltoes 8.25219
2196
root 12.8517 8.14688 -2.48411 121.065 -5.44396 -176.2
lowerback 33.2487 1.76475 -0.682645
upperback 6.25379 0.523777 2.97663
thorax -10.1865 -0.56001 3.48152
lowerneck 10.1761 -1.26847 -7.4056
upperneck 13.0152 -4.492 7.45657
head 2.53625 -3.07951 3.4971
rclavicle 8.62228e-015 -2.48978e-014
rhumerus 79.1597 -14.7212 -51.2221
rradius 46.6874
rwrist 2.48938
rhand 0.263906 -25.4874
rfingers 7.12502
rthumb 25.8431 -53.7516
lclavicle 8.62228e-015 -2.48978e-014
lhumerus 71.3738 11.2538 44.2028
lradius 50.167
lwrist 3.88433
lhand -7.52021 7.64044
lfingers 7.12502
lthumb 18.3704 36.793
rfemur -33.2853 -23.2576 11.3766
rtibia 127.649
rfoot -22.2441 -2.27557
rtoes 15.0511
lfemur -38.2904 22.6813 3.78883
ltibia 126.005
lfoot -11.1449 -21.4276
ltoes 8.59211
2197
root 12.838 8.17129 -2.71759 120.457 -5.90819 -176.082
lowerback 33.1465 1.84379 -0.722866
upperback 6.36019 0.61056 3.0382
thorax -10.0359 -0.525275 3.53303
lowerneck 10.152 -1.44854 -7.36205
upperneck 13.401 -4.7725 7.20805
head 2.67321 -3.23954 3.40938
rclavicle 2.06985e-014 -2.08724e-014
rhumerus 79.2064 -15.273 -50.9474
rradius 47.4078
rwrist 2.88119
rhand 0.695353 -26.3595
rfingers 7.12502
rthumb 26.2562 -54.5629
lclavicle 2.06985e-014 -2.08724e-014
lhumerus 71.3509 11.5158 43.4538
lradius 50.3808
lwrist 5.05371
lhand -7.39539 7.88022
lfingers 7.12502
lthumb 18.4905 37.0214
rfemur -31.3006 -23.887 9.53485
rtibia 128.571
rfoot -22.9652 -1.8129
rtoes 13.927
lfemur -36.8538 23.1882 4.94436
ltibia 127.082
lfoot -12.4857 -22.1169
ltoes 7.19016
2198
root 12.8222 8.19355 -2.94675 120.239 -6.25906 -175.952
lowerback 32.8054 1.89096 -0.739733
upperback 6.33702 0.717585 3.12073
thorax -9.93673 -0.457176 3.58512
lowerneck 10.711 -1.39161 -7.60843
upperneck 13.1051 -4.78168 7.60855
head 2.50904 -3.26219 3.5879
rclavicle -1.05791e-014 -1.90026e-014
rhumerus 79.1864 -15.7573 -50.7376
rradius 48.3508
rwrist 3.4686
rhand 1.51636 -27.0928
rfingers 7.12502
rthumb 27.042 -55.1766
lclavicle -1.05791e-014 -1.90026e-014
lhumerus 71.3625 11.7942 42.8419
lradius 50.5158
lwrist 6.08076
lhand -7.174 8.07517
lfingers 7.12502
lthumb 18.7035 37.196
rfemur -29.9023 -24.3759 8.12498
rtibia 129.491
rfoot -23.5339 -1.58359
rtoes 10.8072
lfemur -35.7362 23.7437 6.26538
ltibia 128.056
lfoot -13.2987 -22.9198
ltoes 7.0688
